# xmcd CD database file
#
# Track frame offsets:
#	150
#	10876
#	22220
#	31559
#	43579
#	54141
#	66967
#	80276
#	91895
#	100599
#	114098
#	124387
#	133608
#	146544
#	158325
#	168416
#	179141
#	190999
#	201399
#	212049
#	222510
#	233706
#	248124
#
# Disc length: 3452 seconds
#
# Revision: 0
# Processed by: cddbd v1.5.2PL0 Copyright (c) Steve Scherf et al.
# Submitted via: CDex 1.51
#
DISCID=3a0d7a17
DTITLE=Patsy Cline - Patsy Cline
DYEAR=1900
DGENRE=Country
TTITLE0=Stop, Look and Listen
TTITLE1=The Heart You Break May Be Your Own
TTITLE2=Love Me, Love Me, Honey Do
TTITLE3=No More
TTITLE4=Too Many Secrets
TTITLE5=Yes I Understand
TTITLE6=If I Could See the World
TTITLE7=Cry Not For Me
TTITLE8=Come On In
TTITLE9=Life's Railway To Heaven
TTITLE10=Turn the Cards Slowly
TTITLE11=Try Again
TTITLE12=Fingerprints
TTITLE13=Walkin' After Midnight
TTITLE14=Walking Dream
TTITLE15=I Cried All The Way to the Altar
TTITLE16=In Care of the Blues
TTITLE17=Three Cigarettes in the Ashtray
TTITLE18=I've Loved and Lost Again
TTITLE19=Honky Tonk Merry Go Round
TTITLE20=Just Out of Reach
TTITLE21=Then You'll Know
TTITLE22=Angel
EXTD=
EXTT0=
EXTT1=
EXTT2=
EXTT3=
EXTT4=
EXTT5=
EXTT6=
EXTT7=
EXTT8=
EXTT9=
EXTT10=
EXTT11=
EXTT12=
EXTT13=
EXTT14=
EXTT15=
EXTT16=
EXTT17=
EXTT18=
EXTT19=
EXTT20=
EXTT21=
EXTT22=
PLAYORDER=
